<svg width="18" height="18" viewBox="0 0 18 18" fill="none" xmlns="http://www.w3.org/2000/svg">
<path d="M13.4999 4.50011C13.3592 4.3595 13.1685 4.28052 12.9696 4.28052C12.7707 4.28052 12.58 4.3595 12.4394 4.50011L8.99986 7.93961L5.56036 4.50011C5.41972 4.3595 5.22899 4.28052 5.03011 4.28052C4.83124 4.28052 4.64051 4.3595 4.49986 4.50011C4.35926 4.64075 4.28027 4.83148 4.28027 5.03036C4.28027 5.22923 4.35926 5.41996 4.49986 5.56061L7.93936 9.00011L4.49986 12.4396C4.35926 12.5803 4.28027 12.771 4.28027 12.9699C4.28027 13.1687 4.35926 13.3595 4.49986 13.5001C4.64051 13.6407 4.83124 13.7197 5.03011 13.7197C5.22899 13.7197 5.41972 13.6407 5.56036 13.5001L8.99986 10.0606L12.4394 13.5001C12.58 13.6407 12.7707 13.7197 12.9696 13.7197C13.1685 13.7197 13.3592 13.6407 13.4999 13.5001C13.6405 13.3595 13.7195 13.1687 13.7195 12.9699C13.7195 12.771 13.6405 12.5803 13.4999 12.4396L10.0604 9.00011L13.4999 5.56061C13.6405 5.41996 13.7195 5.22923 13.7195 5.03036C13.7195 4.83148 13.6405 4.64075 13.4999 4.50011Z" fill="currentColor"/>
</svg>
