<svg width="16" height="16" viewBox="0 0 16 16" fill="none" xmlns="http://www.w3.org/2000/svg">
<path d="M15.8807 7.454C15.2953 6.174 13 2 8.00001 2C3.00001 2 0.704672 6.174 0.119339 7.454C0.0407646 7.62553 9.15527e-05 7.81199 9.15527e-05 8.00067C9.15527e-05 8.18934 0.0407646 8.3758 0.119339 8.54733C0.704672 9.826 3.00001 14 8.00001 14C13 14 15.2953 9.826 15.8807 8.546C15.9591 8.37466 15.9997 8.18843 15.9997 8C15.9997 7.81157 15.9591 7.62534 15.8807 7.454ZM8.00001 12.6667C3.79534 12.6667 1.83334 9.08933 1.33334 8.00733C1.83334 6.91067 3.79534 3.33333 8.00001 3.33333C12.1947 3.33333 14.1573 6.89533 14.6667 8C14.1573 9.10467 12.1947 12.6667 8.00001 12.6667Z" fill="currentColor" fill-opacity="0.6"/>
<path d="M8.00001 4.66663C7.34073 4.66663 6.69627 4.86212 6.14811 5.22839C5.59994 5.59467 5.1727 6.11526 4.92041 6.72435C4.66812 7.33343 4.6021 8.00366 4.73072 8.65026C4.85934 9.29686 5.17681 9.89081 5.64298 10.357C6.10916 10.8232 6.7031 11.1406 7.3497 11.2692C7.99631 11.3979 8.66653 11.3318 9.27562 11.0796C9.8847 10.8273 10.4053 10.4 10.7716 9.85186C11.1378 9.3037 11.3333 8.65923 11.3333 7.99996C11.3323 7.11623 10.9807 6.269 10.3559 5.64411C9.73097 5.01921 8.88374 4.66768 8.00001 4.66663ZM8.00001 9.99996C7.60444 9.99996 7.21776 9.88266 6.88887 9.6629C6.55997 9.44313 6.30362 9.13078 6.15225 8.76533C6.00087 8.39987 5.96126 7.99774 6.03844 7.60978C6.11561 7.22182 6.30609 6.86545 6.58579 6.58574C6.8655 6.30604 7.22186 6.11556 7.60983 6.03839C7.99779 5.96122 8.39992 6.00082 8.76537 6.1522C9.13082 6.30357 9.44318 6.55992 9.66294 6.88882C9.88271 7.21772 10 7.6044 10 7.99996C10 8.53039 9.78929 9.0391 9.41422 9.41417C9.03915 9.78924 8.53044 9.99996 8.00001 9.99996Z" fill="currentColor" fill-opacity="0.6"/>
</svg>
