<svg width="20" height="18" viewBox="0 0 20 18" fill="none" xmlns="http://www.w3.org/2000/svg">
<path fill-rule="evenodd" clip-rule="evenodd" d="M7.76082 11.6172C7.56882 11.6172 7.37682 11.5442 7.23082 11.3972C6.49282 10.6602 6.08582 9.68019 6.08582 8.63819C6.08582 6.47819 7.84182 4.72119 9.99982 4.72119C11.0378 4.72119 12.0458 5.14019 12.7648 5.87119C13.0548 6.16719 13.0518 6.64119 12.7558 6.93119C12.4608 7.22319 11.9868 7.21819 11.6958 6.92419C11.2568 6.47719 10.6388 6.22119 9.99982 6.22119C8.66882 6.22119 7.58582 7.30519 7.58582 8.63819C7.58582 9.27919 7.83682 9.88319 8.29082 10.3372C8.58382 10.6302 8.58382 11.1042 8.29182 11.3972C8.14482 11.5442 7.95282 11.6172 7.76082 11.6172" fill="#0F2552" fill-opacity="0.6"/>
<path fill-rule="evenodd" clip-rule="evenodd" d="M10.5674 12.4912C10.2124 12.4912 9.89638 12.2372 9.83038 11.8752C9.75638 11.4682 10.0264 11.0772 10.4344 11.0032C11.4144 10.8252 12.1904 10.0472 12.3664 9.06621C12.4404 8.65921 12.8304 8.39121 13.2374 8.46121C13.6454 8.53421 13.9164 8.92421 13.8434 9.33221C13.5564 10.9252 12.2944 12.1892 10.7024 12.4792C10.6574 12.4872 10.6114 12.4912 10.5674 12.4912" fill="#0F2552" fill-opacity="0.6"/>
<mask id="mask0_1604_22750" style="mask-type:luminance" maskUnits="userSpaceOnUse" x="0" y="0" width="17" height="15">
<path fill-rule="evenodd" clip-rule="evenodd" d="M0 0.624481H16.0862V14.7226H0V0.624481Z" fill="white"/>
</mask>
<g mask="url(#mask0_1604_22750)">
<path fill-rule="evenodd" clip-rule="evenodd" d="M4.65441 14.7226C4.49241 14.7226 4.32941 14.6696 4.19141 14.5626C2.50041 13.2346 1.07141 11.2876 0.0614084 8.93361C-0.0205916 8.74361 -0.0205916 8.52961 0.0614084 8.34061C1.08241 5.97661 2.52041 4.01961 4.22041 2.68261C7.68641 -0.0603917 12.3004 -0.0693917 15.8014 2.70261C16.1264 2.95961 16.1814 3.43161 15.9244 3.75661C15.6664 4.07961 15.1964 4.13661 14.8704 3.87861C11.9044 1.53061 8.08341 1.53861 5.14941 3.86061C3.71341 4.99061 2.48041 6.63661 1.57041 8.63861C2.47141 10.6286 3.69341 12.2646 5.11841 13.3826C5.44441 13.6386 5.50041 14.1106 5.24441 14.4356C5.09641 14.6236 4.87641 14.7226 4.65441 14.7226" fill="#0F2552" fill-opacity="0.6"/>
</g>
<mask id="mask1_1604_22750" style="mask-type:luminance" maskUnits="userSpaceOnUse" x="6" y="4" width="14" height="13">
<path fill-rule="evenodd" clip-rule="evenodd" d="M6.71747 4.74118H20V16.6894H6.71747V4.74118Z" fill="white"/>
</mask>
<g mask="url(#mask1_1604_22750)">
<path fill-rule="evenodd" clip-rule="evenodd" d="M10.0001 16.6894C9.0631 16.6894 8.1311 16.5374 7.2311 16.2384C6.8381 16.1074 6.6251 15.6824 6.7561 15.2894C6.8871 14.8954 7.3101 14.6864 7.7051 14.8144C8.4521 15.0634 9.2241 15.1894 10.0001 15.1894C13.4281 15.1894 16.5611 12.7474 18.4301 8.63639C17.9741 7.63739 17.4431 6.73239 16.8491 5.94239C16.6001 5.61139 16.6661 5.14039 16.9971 4.89139C17.3271 4.64239 17.7981 4.71039 18.0471 5.04039C18.7711 6.00139 19.4071 7.11239 19.9381 8.33839C20.0211 8.52839 20.0211 8.74439 19.9381 8.93339C17.8421 13.7904 14.1271 16.6894 10.0001 16.6894" fill="#0F2552" fill-opacity="0.6"/>
</g>
<mask id="mask2_1604_22750" style="mask-type:luminance" maskUnits="userSpaceOnUse" x="1" y="0" width="18" height="18">
<path fill-rule="evenodd" clip-rule="evenodd" d="M1.36356 0.000396729H18.6371V17.2734H1.36356V0.000396729Z" fill="white"/>
</mask>
<g mask="url(#mask2_1604_22750)">
<path fill-rule="evenodd" clip-rule="evenodd" d="M2.11331 17.2734C1.92131 17.2734 1.72931 17.2004 1.58331 17.0534C1.29031 16.7604 1.29031 16.2864 1.58331 15.9934L17.3573 0.219384C17.6503 -0.0736162 18.1243 -0.0736162 18.4173 0.219384C18.7103 0.512384 18.7103 0.987384 18.4173 1.28038L2.64331 17.0534C2.49731 17.2004 2.30531 17.2734 2.11331 17.2734" fill="#0F2552" fill-opacity="0.6"/>
</g>
</svg>
