<svg width="24" height="24" viewBox="0 0 24 24" fill="none" xmlns="http://www.w3.org/2000/svg">
<path fill-rule="evenodd" clip-rule="evenodd" d="M11.889 12.6187H11.921C14.849 12.6187 17.23 10.2377 17.23 7.30969C17.23 4.38169 14.849 1.99969 11.921 1.99969C8.99202 1.99969 6.61002 4.3817 6.61002 7.30669C6.60002 10.2267 8.96702 12.6097 11.889 12.6187ZM8.03802 7.30969C8.03802 5.16869 9.78002 3.42769 11.921 3.42769C14.061 3.42769 15.802 5.16869 15.802 7.30969C15.802 9.44969 14.061 11.1917 11.921 11.1917H11.892C9.76002 11.1837 8.03102 9.4437 8.03802 7.30969Z" fill="#B28309"/>
<path fill-rule="evenodd" clip-rule="evenodd" d="M4 18.173C4 21.87 9.962 21.87 11.921 21.87C15.32 21.87 19.84 21.489 19.84 18.193C19.84 14.496 13.88 14.496 11.921 14.496C8.521 14.496 4 14.877 4 18.173ZM5.5 18.173C5.5 16.728 7.66 15.996 11.921 15.996C16.181 15.996 18.34 16.735 18.34 18.193C18.34 19.638 16.181 20.37 11.921 20.37C7.66 20.37 5.5 19.631 5.5 18.173Z" fill="#B28309"/>
</svg>
